<svg width="221" height="29" viewBox="0 0 221 29" fill="none" xmlns="http://www.w3.org/2000/svg">
<path d="M0.241211 28.3662V0.366211H24.2412V4.36621H28.2412V16.3662H24.2412V20.3662H8.24121V28.3662H0.241211ZM8.24121 16.3662H20.2412V4.36621H8.24121V16.3662ZM32.2412 28.3662V0.366211H60.2412V4.36621H40.2412V12.3662H56.2412V16.3662H40.2412V24.3662H60.2412V28.3662H32.2412ZM64.2412 28.3662V0.366211H88.2412V4.36621H92.2412V16.3662H84.2412V20.3662H88.2412V24.3662H92.2412V28.3662H80.2412V24.3662H76.2412V20.3662H72.2412V28.3662H64.2412ZM72.2412 16.3662H80.2412V12.3662H84.2412V4.36621H72.2412V16.3662ZM96.2412 28.3662V0.366211H120.241V4.36621H124.241V16.3662H120.241V20.3662H104.241V28.3662H96.2412ZM104.241 16.3662H116.241V4.36621H104.241V16.3662ZM132.241 28.3662V0.366211H140.241V24.3662H156.241V28.3662H132.241ZM160.241 28.3662V0.366211H188.241V4.36621H168.241V12.3662H184.241V16.3662H168.241V24.3662H188.241V28.3662H160.241ZM192.241 28.3662V20.3662H196.241V16.3662H200.241V12.3662H196.241V8.36621H192.241V0.366211H200.241V8.36621H204.241V12.3662H208.241V8.36621H212.241V0.366211H220.241V8.36621H216.241V12.3662H212.241V16.3662H216.241V20.3662H220.241V28.3662H212.241V20.3662H208.241V16.3662H204.241V20.3662H200.241V28.3662H192.241Z" fill="#303030"/>
</svg>
